<svg xmlns="http://www.w3.org/2000/svg" width="28" height="28" fill="none" viewBox="0 0 28 28">
  <symbol id="floppymini">
    <path fill="#fff" d="M0 0h2.154v2.154H0zm0 2.154h2.154v2.154H0zm0 2.154h2.154v2.154H0z"/>
    <path fill="#fff" d="M0 6.461h2.154v2.154H0zm0 2.154h2.154v2.154H0zm0 2.154h2.154v2.154H0zm0 2.154h2.154v2.154H0zm0 2.154h2.154v2.154H0zm0 2.154h2.154v2.154H0zm0 2.154h2.154v2.154H0zm0 2.154h2.154v2.154H0z"/>
    <path fill="#fff" d="M0 23.692h2.154v2.154H0zm0 2.154h2.154V28H0zM23.693 0v2.154h-2.154V0z"/>
    <path fill="#fff" d="M21.54 0v2.154h-2.155V0zm-2.156 0v2.154H17.23V0zM17.23 0v2.154h-2.154V0z"/>
    <path fill="#fff" d="M15.077 0v2.154h-2.154V0zm-2.154 0v2.154H10.77V0zM10.77 0v2.154H8.615V0z"/>
    <path fill="#fff" d="M8.616 0v2.154H6.462V0zM6.46 0v2.154H4.308V0zM4.307 0v2.154H2.153V0zm21.539 2.153v2.154h-2.154V2.153zM6.46 4.308v2.154H4.308V4.308zm0-2.154v2.154H4.308V2.154z"/>
    <path fill="#fff" d="M6.461 6.461v2.154H4.307V6.461zm15.078-2.153v2.154h-2.154V4.308zm0-2.154v2.154h-2.154V2.154z"/>
    <path fill="#fff" d="M21.54 6.461v2.154h-2.154V6.461zm-4.31-2.154v2.154h-2.154V4.307zm0-2.154v2.154h-2.154V2.153z"/>
    <path fill="#fff" d="M17.23 6.46v2.155h-2.153V6.46zm4.31 2.155v2.154h-2.155V8.615zm-2.156 0v2.154H17.23V8.615zm-2.154 0v2.154h-2.153V8.615zm-2.153 0v2.154h-2.154V8.615zm-2.154 0v2.154H10.77V8.615zm-2.153.001v2.154H8.616V8.616zm-2.154-.001v2.154H6.462V8.615zm-2.155 0v2.154H4.307V8.615zm17.231 6.462v2.154h-2.154v-2.154z"/>
    <path fill="#fff" d="M21.539 15.077v2.154h-2.154v-2.154zm-2.155 0v2.154H17.23v-2.154zm-2.154-.001v2.154h-2.154v-2.154z"/>
    <path fill="#fff" d="M15.077 15.077v2.154h-2.155v-2.154z"/>
    <path fill="#fff" d="M12.923 15.077v2.153h-2.154v-2.153z"/>
    <path fill="#fff" d="M10.77 15.077v2.154H8.614v-2.154z"/>
    <path fill="#fff" d="M8.616 15.077v2.154H6.462v-2.154zm-2.156 0v2.154H4.308v-2.154zm17.233 2.154v2.154h-2.154v-2.154zm-17.233 0v2.154H4.308v-2.154zm17.232 2.154v2.154h-2.154v-2.154zm-17.232 0v2.154H4.308v-2.154zm17.232 2.154v2.154h-2.154v-2.154zm-17.232 0v2.154H4.308v-2.154z"/>
    <path fill="#fff" d="M6.461 23.692v2.154H4.307v-2.154zm17.232.001v2.154H21.54v-2.154zm2.154 2.153V28h-2.154v-2.154z"/>
    <path fill="#fff" d="M23.693 25.847V28h-2.154v-2.154z"/>
    <path fill="#fff" d="M21.54 25.846V28h-2.155v-2.154zm-2.156 0V28H17.23v-2.154zm-2.154 0V28h-2.153v-2.154zm-2.153 0V28h-2.154v-2.154zm-2.154 0V28H10.77v-2.154zm-2.153.001V28H8.616v-2.154zm-2.154-.001V28H6.462v-2.154zm-2.155 0V28H4.307v-2.154zm-2.154 0V28H2.153v-2.154zM28 28h-2.154v-2.154H28zm0-2.154h-2.154v-2.154H28z"/>
    <path fill="#fff" d="M28 23.693h-2.154v-2.154H28zm0-2.155h-2.154v-2.154H28z"/>
    <path fill="#fff" d="M28 19.385h-2.154V17.23H28z"/>
    <path fill="#fff" d="M28 17.231h-2.154v-2.154H28zm0-2.155h-2.154v-2.154H28z"/>
    <path fill="#fff" d="M28 12.924h-2.154V10.77H28zm0-2.155h-2.154V8.615H28zm0-2.154h-2.154V6.461H28z"/>
    <path fill="#fff" d="M28 6.462h-2.154V4.308H28z"/>
  </symbol>
</svg>